<svg xmlns="http://www.w3.org/2000/svg" xmlns:xlink="http://www.w3.org/1999/xlink" width="0" height="0" style="position:absolute">

<symbol id="icon-calender" viewBox="0 0 30 30">
        <path d="M30 27.9V6.4c0-.6-.2-1.1-.7-1.5-.5-.4-1-.6-1.6-.6h-2.3V2.7c0-.7-.3-1.3-.8-1.9S23.3 0 22.5 0h-1.2c-.8 0-1.5.3-2 .8s-.8 1.1-.8 1.9v1.6h-6.9V2.7c0-.7-.3-1.3-.9-1.9S9.4 0 8.7 0H7.5c-.8 0-1.5.3-2 .8s-.9 1.1-.9 1.9v1.6H2.3c-.6 0-1.2.2-1.6.6-.4.4-.7.9-.7 1.5v21.4c0 .6.2 1.1.7 1.5s1 .6 1.6.6h25.4c.6 0 1.2-.2 1.6-.6s.7-.8.7-1.4zm-2.3 0h-5.2V23h5.2v4.9zm0-5.9h-5.2v-5.3h5.2V22zm0-6.5h-5.2v-4.8h5.2v4.8zm-4.6-8c0 .1-.1.3-.2.4s-.3.2-.4.1h-1.2c-.2 0-.3 0-.4-.1-.1-.1-.2-.2-.2-.4V2.7c0-.1.1-.3.2-.4s.3-.2.4-.2h1.2c.2 0 .3.1.4.2.1.1.2.2.2.4v4.8zm-1.8 20.4h-5.7V23h5.7v4.9zm0-5.9h-5.7v-5.3h5.7V22zm0-6.5h-5.7v-4.8h5.7v4.8zm-6.9 12.4H8.7V23h5.8v4.9zm0-5.9H8.7v-5.3h5.8V22zm0-6.5H8.7v-4.8h5.8v4.8zm-5.2-8c0 .1-.1.3-.2.4 0 .1-.2.2-.3.1H7.5c-.1 0-.3 0-.4-.1-.1-.1-.2-.2-.2-.4V2.7c0-.1.1-.3.2-.4.1-.1.2-.2.4-.2h1.1c.2 0 .3.1.4.2.1.1.2.2.2.4v4.8zM7.5 27.9H2.3V23h5.2v4.9zm0-5.9H2.3v-5.3h5.2V22zm0-6.5H2.3v-4.8h5.2v4.8z"/>
</symbol>

<symbol id="icon-chevron" viewBox="0 0 80 32">
    <path d="M50.286 5.486l-5.867-5.486-19.276 18.024-19.276-18.024-5.867 5.486 25.143 23.51z"></path>
</symbol>

<symbol id="icon-close" viewBox="0 0 24 24">
        <path d="M19 6.41L17.59 5 12 10.59 6.41 5 5 6.41 10.59 12 5 17.59 6.41 19 12 13.41 17.59 19 19 17.59 13.41 12z"/>
</symbol>

<symbol id="icon-comment" viewBox="0 0 30 30">
        <path d="M30 10.9c0-2-.5-3.8-1.6-5.5s-2.5-3-4.3-4c-1.8-1-3.8-1.5-5.9-1.5s-4.1.5-5.9 1.5-3.2 2.3-4.3 4-1.6 3.5-1.6 5.5.6 3.8 1.6 5.5 2.5 3 4.3 4c1.8 1 3.8 1.5 5.9 1.5 1 0 1.9-.1 2.9-.3 1.4 1.3 3 2.2 4.6 2.7.4.1.9.2 1.4.3h.1c.1 0 .2-.1.4-.2.1-.1.2-.3.2-.4v-.6l-.1-.1c0-.1-.1-.1-.1-.1l-.1-.1V23c-.1-.1-.2-.3-.4-.5-.2-.3-.4-.5-.5-.6s-.2-.3-.4-.6c-.1-.3-.3-.6-.4-.8-.1-.2-.2-.5-.3-1 1.4-1 2.5-2.3 3.2-3.7.9-1.6 1.3-3.2 1.3-4.9zM19.7 24.4c-.6.1-1.1.1-1.5.1-1.8 0-3.5-.3-5.2-1-1.6-.6-3.1-1.6-4.4-2.7-1.4-1.3-2.5-2.8-3.2-4.5s-1.1-3.5-1.1-5.4c0-1.1.1-2.2.4-3.2-1.4 1-2.6 2.3-3.4 3.8S0 14.6 0 16.3c0 1.7.4 3.3 1.2 4.8.8 1.5 1.9 2.7 3.2 3.7-.1.4-.2.7-.3 1-.1.3-.3.5-.4.8-.2.3-.3.5-.4.6s-.2.4-.4.6c-.2.3-.3.5-.4.5l-.1.1c0 .1-.1.1-.1.1s0 .1-.1.1c0 .1 0 .1-.1.1v.5c0 .2.1.4.2.5.2.3.3.3.5.3.5-.1 1-.2 1.4-.3 1.7-.6 3.2-1.5 4.7-2.7 1 .2 2 .3 2.9.3 3-.1 5.6-1 7.9-2.9z"/>
</symbol>

<symbol id="icon-email" viewBox="0 0 30 30">
        <path d="M4.1 25.3c-1.2 0-2.1-.4-2.9-1.2-.8-.8-1.2-1.8-1.2-3V8.9c0-1.2.4-2.2 1.2-3C2 5.1 3 4.7 4.1 4.7h21.8c1.2 0 2.1.4 2.9 1.3.8.8 1.2 1.8 1.2 3v12.2c0 1.2-.4 2.2-1.2 3-.8.8-1.8 1.2-2.9 1.2H4.1zm-1.3-4c0 .3.2.5.4.7.3.3.6.4.9.4h21.8c.4 0 .7-.2.9-.4.2-.2.3-.4.4-.7l-6.6-5.1-3.7 2.8c-.6.5-1.2.7-1.9.7s-1.4-.2-2-.7l-3.7-2.8-6.5 5.1zm24.4-2.4v-7.8l-5 3.9 5 3.9zm-24.4 0l5-3.9-5-3.9v7.8zm11.4-1.4c.2.2.5.3.8.3s.6-.1.8-.3l3.7-2.9.8-.6 6.9-5.4c0-.3-.2-.5-.4-.7-.3-.3-.6-.4-.9-.4H4c-.3 0-.6.1-.9.4-.1.3-.2.5-.3.8l11.4 8.8z"/>
</symbol>

<symbol id="icon-enquiry" viewBox="0 0 24 24">
        <path d="M20 4H4c-1.1 0-1.99.9-1.99 2L2 18c0 1.1.9 2 2 2h16c1.1 0 2-.9 2-2V6c0-1.1-.9-2-2-2zm0 4l-8 5-8-5V6l8 5 8-5v2z"/>
</symbol>

<symbol id="icon-facebook" viewBox="0 0 30 30">
        <path d="M22 0h-4.8c-2.9 0-6 1.2-6 5.3v4.4H7.9v5.2h3.4V30h6.2V14.8h4.1l.4-5.2h-4.6v-3c0-1.6 1.7-1.5 1.8-1.5H22V0z"/>
</symbol>

<symbol id="icon-googleplus" viewBox="0 0 30 30">
        <path d="M16.4 17.6c-.6-.3-1.3-.4-1.9-.5-.4 0-1.2-.1-2.2-.1-1.1-.1-1.9-.1-2.5-.1-.6 0-1.1 0-1.6-.1-.5 0-1-.1-1.4-.2-.4-.1-.8-.3-1.1-.5-.3-.3-.4-.7-.4-1.2s.2-.9.5-1.2c.3-.3.7-.5 1-.6h2.5c1.9 0 3.6-.6 5.1-1.9 1.4-1.2 2.2-2.7 2.2-4.5 0-.7-.1-1.4-.4-2.1-.2-.7-.6-1.4-1.1-2h4.8v-2h-7.1c-.6-.2-1.3-.4-1.9-.5S9.6 0 8.9 0c-2.2 0-4 .6-5.5 1.9C2 3.1 1.3 4.7 1.3 6.6c0 1.3.4 2.4 1.1 3.4.7 1 1.7 1.8 3.1 2.4v.3c-1 .4-1.8 1-2.3 1.6-.5.6-.8 1.3-.8 2 0 .6.1 1.1.3 1.5.2.4.5.7.9 1 .3.2.7.5 1.1.6.4.2.9.3 1.3.5v.3c-1.7.1-3.1.5-4.2 1.3S.2 23.4.2 24.8c0 1.7.8 3 2.3 3.9 1.4.9 3.7 1.3 6.8 1.3 1.9 0 3.5-.2 4.7-.5s2.4-.9 3.3-1.5c.9-.6 1.5-1.4 1.9-2.2.4-.9.6-1.8.6-2.7 0-1-.2-1.8-.5-2.4-.3-.7-.7-1.2-1.3-1.8-.4-.6-1-1-1.6-1.3zm-4.8-7.3c-.6 1-1.5 1.4-2.7 1.4-1.1 0-1.9-.5-2.6-1.4-.7-1-1-2.2-1-3.7 0-.7.1-1.3.2-2S5.8 3.5 6 3c.3-.5.7-.9 1.1-1.1.5-.3 1-.4 1.7-.4 1.2 0 2.1.5 2.7 1.4.7 1 1 2.2 1 3.8 0 1.5-.3 2.7-.9 3.6zm3.2 17c-1.2.7-2.8 1.1-4.8 1.1-1.2 0-2.2-.1-3-.3-.8-.2-1.5-.5-1.9-.9-.5-.3-.9-.8-1.1-1.2-.2-.4-.3-.9-.3-1.4 0-1.1.3-1.9.9-2.6.6-.7 1.7-1.2 3.2-1.5 1.6 0 3 0 4.2.1 1.2.1 2 .1 2.4.2.7.2 1.3.5 1.6 1 .4.5.5 1.1.5 1.9 0 1.6-.6 2.8-1.7 3.6zM24.3 6.7v4h1.6v-4h4V5.2h-4v-4h-1.6v4h-4v1.5h4z"/>
</symbol>

<symbol id="icon-linkedin" viewBox="0 0 30 30">
        <path d="M3.2.3C1.3.3 0 1.6 0 3.4c0 1.7 1.3 3.1 3.2 3.1 2 0 3.3-1.4 3.3-3.1C6.5 1.6 5.2.3 3.2.3zm-3 29.4h6.1v-21H.2v21zM22.9 9c-2 0-4-.4-6.1 2.9h-.1l-.1-3.2h-5.4c.1 1.7.1 4.3.1 6.8v14.2h6.1V17.6c0-.6.1-1.1.2-1.5.4-1.1 1.4-2.3 3.1-2.3 2.2 0 3.1 1.7 3.1 4.3v11.7H30V17.3c0-5.9-3-8.3-7.1-8.3z"/>
</symbol>

<symbol id="icon-menu" viewBox="0 0 24 24">
    <path d="M3 18h18v-2H3v2zm0-5h18v-2H3v2zm0-7v2h18V6H3z"/>
</symbol>

<symbol id="icon-phone" viewBox="0 0 24 24">
<path d="M6.62 10.79c1.44 2.83 3.76 5.14 6.59 6.59l2.2-2.2c.27-.27.67-.36 1.02-.24 1.12.37 2.33.57 3.57.57.55 0 1 .45 1 1V20c0 .55-.45 1-1 1-9.39 0-17-7.61-17-17 0-.55.45-1 1-1h3.5c.55 0 1 .45 1 1 0 1.25.2 2.45.57 3.57.11.35.03.74-.25 1.02l-2.2 2.2z"/>
</symbol>

<symbol id="icon-search" viewBox="0 0 24 24">
        <path d="M15.5 14h-.79l-.28-.27C15.41 12.59 16 11.11 16 9.5 16 5.91 13.09 3 9.5 3S3 5.91 3 9.5 5.91 16 9.5 16c1.61 0 3.09-.59 4.23-1.57l.27.28v.79l5 4.99L20.49 19l-4.99-5zm-6 0C7.01 14 5 11.99 5 9.5S7.01 5 9.5 5 14 7.01 14 9.5 11.99 14 9.5 14z"/>
</symbol>

<symbol id="icon-share" viewBox="0 0 30 30">
        <path d="M2.1 28.3c.1.1.1.2.2.4s.1.4.2.6c.1.2.2.3.2.4.2.2.3.3.5.3s.3-.1.4-.2c.1-.1.2-.3.2-.5v-.5c0-.2-.1-.3-.1-.4-.1-.9-.1-1.6-.1-2.3 0-1.3.1-2.4.3-3.4.2-1 .5-1.9.8-2.6.3-.7.8-1.4 1.3-1.9s1.1-1 1.8-1.3 1.4-.6 2.2-.8c.9-.2 1.7-.3 2.6-.4.9-.1 1.8-.1 2.9-.1h3.8v4.8c0 .3.1.6.3.8.2.2.5.4.8.4.3 0 .5-.1.8-.4l8.5-9.6c.2-.2.3-.5.3-.8 0-.3-.1-.6-.3-.8L21.2.4c-.3-.3-.5-.4-.8-.4-.3 0-.6.1-.8.3s-.3.5-.3.8V6h-3.8C7.5 6 2.7 8.5.9 13.6c-.6 1.6-.9 3.7-.9 6.2 0 2.1.7 4.9 2.1 8.5z"/>
</symbol>

<symbol id="icon-subscribe" viewBox="0 0 30 30">
        <path d="M1.1 23.6c-.7.7-1 1.6-1.1 2.6 0 1 .3 1.9 1.1 2.6.8.8 1.6 1.2 2.6 1.2s1.9-.4 2.7-1.1c.8-.7 1.1-1.6 1.1-2.6s-.4-1.9-1.1-2.6c-.7-.7-1.6-1.1-2.7-1.1-1.1-.1-1.9.3-2.6 1zm0-22.5C.4 1.9 0 2.7 0 3.7s.4 1.9 1.1 2.6 1.6 1.1 2.7 1.1c5.2 0 9.6 1.8 13.3 5.5s5.5 8.1 5.5 13.3c0 1 .3 1.9 1.1 2.6.7.8 1.6 1.1 2.7 1.1 1 0 1.9-.4 2.7-1.1.7-.7 1.1-1.6 1.1-2.6 0-4.7-1.2-9.1-3.5-13.1s-5.6-7.2-9.6-9.6S8.5 0 3.7 0c-1 0-1.9.4-2.6 1.1zm0 11.3C.4 13.1 0 14 0 15s.4 1.9 1.1 2.6c.7.7 1.6 1.1 2.7 1.1 2 0 3.8.8 5.3 2.2s2.2 3.2 2.2 5.3c0 1 .4 1.9 1.1 2.6.6.9 1.5 1.2 2.6 1.2s2-.4 2.7-1.1c.7-.7 1.1-1.6 1.1-2.6 0-4.1-1.4-7.7-4.4-10.6s-6.5-4.4-10.6-4.4c-1.1 0-2 .4-2.7 1.1z"/>
</symbol>

<symbol id="icon-twitter" viewBox="0 0 30 30">
        <path d="M30 5.7c-1.1.5-2.3.8-3.5 1 1.3-.8 2.2-2 2.7-3.4-1.2.7-2.5 1.2-3.9 1.5-1.1-1.2-2.7-1.9-4.5-1.9-3.4 0-6.2 2.8-6.2 6.2 0 .5.1 1 .2 1.4-5.1-.4-9.7-2.8-12.7-6.6-.5.9-.8 2-.8 3.1 0 2.1 1.1 4 2.7 5.1-1 0-2-.3-2.8-.8v.1c0 3 2.1 5.5 4.9 6-.5.1-1.1.2-1.6.2-.4 0-.8 0-1.2-.1.8 2.4 3.1 4.2 5.7 4.3-2.1 1.7-4.8 2.6-7.6 2.6-.5 0-1 0-1.5-.1 2.7 1.7 6 2.8 9.4 2.8 11.3 0 17.5-9.4 17.5-17.5v-.8c1.3-.8 2.4-1.9 3.2-3.1z"/>
</symbol>

<symbol id="icon-youtube" viewBox="0 0 30 30">
        <path d="M29.7 8.8s-.1-4.4-4.6-4.5c-4.5-.2-9.6-.3-9.6-.3h-.9s-5.2.1-9.7.3C.3 4.5.3 8.6.3 8.6s-.6 6.6-.1 11.5c.4 3.7 1.2 5.2 5.5 5.4 4.3.2 8.8.5 8.8.5h.9s4.5-.2 8.8-.4c4.3-.2 5.1-1.5 5.5-5.2.6-5 0-11.6 0-11.6zM12 19.2v-8.5l8.1 4.3-8.1 4.2z"/>
</symbol>
</svg>
